<mxfile host="app.diagrams.net" agent="Mozilla/5.0 (Windows NT 10.0; Win64; x64) AppleWebKit/537.36 (KHTML, like Gecko) Chrome/131.0.0.0 Safari/537.36" version="25.0.3">
  <diagram name="หน้า-1" id="IB6bBZTqSRk3K_AtzuGK">
    <mxGraphModel dx="1034" dy="446" grid="1" gridSize="10" guides="1" tooltips="1" connect="1" arrows="1" fold="1" page="1" pageScale="1" pageWidth="827" pageHeight="1169" math="0" shadow="0">
      <root>
        <mxCell id="0" />
        <mxCell id="1" parent="0" />
        <mxCell id="6qcVDSkULkJAf-jg26bS-3" value="" style="edgeStyle=orthogonalEdgeStyle;rounded=0;orthogonalLoop=1;jettySize=auto;html=1;" edge="1" parent="1" source="6qcVDSkULkJAf-jg26bS-1" target="6qcVDSkULkJAf-jg26bS-2">
          <mxGeometry relative="1" as="geometry" />
        </mxCell>
        <mxCell id="6qcVDSkULkJAf-jg26bS-1" value="start" style="strokeWidth=2;html=1;shape=mxgraph.flowchart.start_1;whiteSpace=wrap;" vertex="1" parent="1">
          <mxGeometry x="360" y="40" width="100" height="60" as="geometry" />
        </mxCell>
        <mxCell id="6qcVDSkULkJAf-jg26bS-5" value="" style="edgeStyle=orthogonalEdgeStyle;rounded=0;orthogonalLoop=1;jettySize=auto;html=1;" edge="1" parent="1" source="6qcVDSkULkJAf-jg26bS-2" target="6qcVDSkULkJAf-jg26bS-4">
          <mxGeometry relative="1" as="geometry" />
        </mxCell>
        <mxCell id="6qcVDSkULkJAf-jg26bS-2" value="สร้างตัวแปร A, B, C, D" style="whiteSpace=wrap;html=1;strokeWidth=2;" vertex="1" parent="1">
          <mxGeometry x="350" y="180" width="120" height="60" as="geometry" />
        </mxCell>
        <mxCell id="6qcVDSkULkJAf-jg26bS-7" value="" style="edgeStyle=orthogonalEdgeStyle;rounded=0;orthogonalLoop=1;jettySize=auto;html=1;" edge="1" parent="1" source="6qcVDSkULkJAf-jg26bS-4" target="6qcVDSkULkJAf-jg26bS-6">
          <mxGeometry relative="1" as="geometry" />
        </mxCell>
        <mxCell id="6qcVDSkULkJAf-jg26bS-4" value="แสดงคำว่า Test Case&amp;nbsp;" style="shape=parallelogram;perimeter=parallelogramPerimeter;whiteSpace=wrap;html=1;fixedSize=1;strokeWidth=2;" vertex="1" parent="1">
          <mxGeometry x="325" y="320" width="170" height="60" as="geometry" />
        </mxCell>
        <mxCell id="6qcVDSkULkJAf-jg26bS-9" value="" style="edgeStyle=orthogonalEdgeStyle;rounded=0;orthogonalLoop=1;jettySize=auto;html=1;" edge="1" parent="1" source="6qcVDSkULkJAf-jg26bS-6" target="6qcVDSkULkJAf-jg26bS-8">
          <mxGeometry relative="1" as="geometry" />
        </mxCell>
        <mxCell id="6qcVDSkULkJAf-jg26bS-6" value="รับค่าจากผู้ใช้ 4 ตัว" style="shape=parallelogram;perimeter=parallelogramPerimeter;whiteSpace=wrap;html=1;fixedSize=1;strokeWidth=2;" vertex="1" parent="1">
          <mxGeometry x="350" y="460" width="120" height="60" as="geometry" />
        </mxCell>
        <mxCell id="6qcVDSkULkJAf-jg26bS-11" value="" style="edgeStyle=orthogonalEdgeStyle;rounded=0;orthogonalLoop=1;jettySize=auto;html=1;" edge="1" parent="1" source="6qcVDSkULkJAf-jg26bS-8" target="6qcVDSkULkJAf-jg26bS-10">
          <mxGeometry relative="1" as="geometry" />
        </mxCell>
        <mxCell id="6qcVDSkULkJAf-jg26bS-8" value="แสดงผลย้อนกลับ" style="shape=parallelogram;perimeter=parallelogramPerimeter;whiteSpace=wrap;html=1;fixedSize=1;strokeWidth=2;" vertex="1" parent="1">
          <mxGeometry x="350" y="600" width="120" height="60" as="geometry" />
        </mxCell>
        <mxCell id="6qcVDSkULkJAf-jg26bS-10" value="end" style="strokeWidth=2;html=1;shape=mxgraph.flowchart.start_1;whiteSpace=wrap;" vertex="1" parent="1">
          <mxGeometry x="360" y="740" width="100" height="60" as="geometry" />
        </mxCell>
      </root>
    </mxGraphModel>
  </diagram>
</mxfile>
